REM DIRINDEX 1\2,1\4,1\3\5,1\3\6,1\3\7
REM DIRNAME folder01,folder02,folder03,folder04,folder05,folder06,folder07
TITLE ""
FILE "CD2Track39.mp3" MP3
  TRACK 01 AUDIO
    TITLE "0:"
    INDEX 01 00:00:00
  TRACK 02 AUDIO
    TITLE "5:cjc082_2043"
    INDEX 01 00:00:25
  TRACK 03 AUDIO
    TITLE "0:"
    INDEX 01 00:01:50
  TRACK 04 AUDIO
    TITLE "6:cjc082_2044"
    INDEX 01 00:02:24
  TRACK 05 AUDIO
    TITLE "0:"
    INDEX 01 00:03:41
  TRACK 06 AUDIO
    TITLE "5:cjc082_2045"
    INDEX 01 00:04:13
  TRACK 07 AUDIO
    TITLE "0:"
    INDEX 01 00:05:22
  TRACK 08 AUDIO
    TITLE "6:cjc082_2046"
    INDEX 01 00:06:00
  TRACK 09 AUDIO
    TITLE "0:"
    INDEX 01 00:07:11
  TRACK 10 AUDIO
    TITLE "5:cjc082_2047"
    INDEX 01 00:07:60
  TRACK 11 AUDIO
    TITLE "0:"
    INDEX 01 00:08:70
  TRACK 12 AUDIO
    TITLE "6:cjc082_2048"
    INDEX 01 00:09:45
  TRACK 13 AUDIO
    TITLE "0:"
    INDEX 01 00:11:64
  TRACK 14 AUDIO
    TITLE "5:cjc082_2049"
    INDEX 01 00:12:34
  TRACK 15 AUDIO
    TITLE "0:"
    INDEX 01 00:13:37
  TRACK 16 AUDIO
    TITLE "6:cjc082_2050"
    INDEX 01 00:14:09
  TRACK 17 AUDIO
    TITLE "0:"
    INDEX 01 00:15:46
  TRACK 18 AUDIO
    TITLE "5:cjc082_2051"
    INDEX 01 00:16:16
  TRACK 19 AUDIO
    TITLE "0:"
    INDEX 01 00:17:41
  TRACK 20 AUDIO
    TITLE "6:cjc082_2052"
    INDEX 01 00:18:13
  TRACK 21 AUDIO
    TITLE "0:"
    INDEX 01 00:19:13
  TRACK 22 AUDIO
    TITLE "5:cjc082_2053"
    INDEX 01 00:19:60
  TRACK 23 AUDIO
    TITLE "0:"
    INDEX 01 00:21:11
  TRACK 24 AUDIO
    TITLE "6:cjc082_2054"
    INDEX 01 00:21:57
  TRACK 25 AUDIO
    TITLE "0:"
    INDEX 01 00:22:68
  TRACK 26 AUDIO
    TITLE "5:cjc082_2055"
    INDEX 01 00:23:36
  TRACK 27 AUDIO
    TITLE "0:"
    INDEX 01 00:24:61
  TRACK 28 AUDIO
    TITLE "6:cjc082_2056"
    INDEX 01 00:25:31
  TRACK 29 AUDIO
    TITLE "0:"
    INDEX 01 00:26:40
  TRACK 30 AUDIO
    TITLE "5:cjc082_2057"
    INDEX 01 00:27:16
  TRACK 31 AUDIO
    TITLE "0:"
    INDEX 01 00:28:53
  TRACK 32 AUDIO
    TITLE "6:cjc082_2058"
    INDEX 01 00:29:25
  TRACK 33 AUDIO
    TITLE "0:"
    INDEX 01 00:30:61
  TRACK 34 AUDIO
    TITLE "5:cjc082_2059"
    INDEX 01 00:31:29
  TRACK 35 AUDIO
    TITLE "0:"
    INDEX 01 00:32:56
  TRACK 36 AUDIO
    TITLE "6:cjc082_2060"
    INDEX 01 00:33:28
  TRACK 37 AUDIO
    TITLE "0:"
    INDEX 01 00:37:46
  TRACK 38 AUDIO
    TITLE "5:cjc082_2061"
    INDEX 01 00:38:16
  TRACK 39 AUDIO
    TITLE "0:"
    INDEX 01 00:39:43
  TRACK 40 AUDIO
    TITLE "6:cjc082_2062"
    INDEX 01 00:40:15
  TRACK 41 AUDIO
    TITLE "0:"
    INDEX 01 00:41:40
  TRACK 42 AUDIO
    TITLE "5:cjc082_2063"
    INDEX 01 00:42:12
  TRACK 43 AUDIO
    TITLE "0:"
    INDEX 01 00:43:40
  TRACK 44 AUDIO
    TITLE "6:cjc082_2064"
    INDEX 01 00:44:12
  TRACK 45 AUDIO
    TITLE "0:"
    INDEX 01 00:45:43
  TRACK 46 AUDIO
    TITLE "5:cjc082_2065"
    INDEX 01 00:46:15
  TRACK 47 AUDIO
    TITLE "0:"
    INDEX 01 00:47:19
  TRACK 48 AUDIO
    TITLE "6:cjc082_2066"
    INDEX 01 00:47:72
  TRACK 49 AUDIO
    TITLE "0:"
    INDEX 01 00:49:37
  TRACK 50 AUDIO
    TITLE "5:cjc082_2067"
    INDEX 01 00:50:09
  TRACK 51 AUDIO
    TITLE "0:"
    INDEX 01 00:51:20
  TRACK 52 AUDIO
    TITLE "6:cjc082_2068"
    INDEX 01 00:51:67
  TRACK 53 AUDIO
    TITLE "0:"
    INDEX 01 00:54:52
  TRACK 54 AUDIO
    TITLE "5:cjc082_2069"
    INDEX 01 00:55:24
  TRACK 55 AUDIO
    TITLE "0:"
    INDEX 01 00:56:43
  TRACK 56 AUDIO
    TITLE "6:cjc082_2070"
    INDEX 01 00:57:17
  TRACK 57 AUDIO
    TITLE "0:"
    INDEX 01 00:58:62
  TRACK 58 AUDIO
    TITLE "5:cjc082_2071"
    INDEX 01 00:59:36
  TRACK 59 AUDIO
    TITLE "0:"
    INDEX 01 01:00:55
  TRACK 60 AUDIO
    TITLE "6:cjc082_2072"
    INDEX 01 01:01:33
  TRACK 61 AUDIO
    TITLE "0:"
    INDEX 01 01:06:71
  TRACK 62 AUDIO
    TITLE "7:cjc082_2073"
    INDEX 01 01:08:38
  TRACK 63 AUDIO
    TITLE "0:"
    INDEX 01 01:18:62
